<?xml version="1.0" standalone="no"?>
<!DOCTYPE svg PUBLIC "-//W3C//DTD SVG 20010904//EN"
 "http://www.w3.org/TR/2001/REC-SVG-20010904/DTD/svg10.dtd">
<svg version="1.0" xmlns="http://www.w3.org/2000/svg"
 width="512.000000pt" height="512.000000pt" viewBox="0 0 512.000000 512.000000"
 preserveAspectRatio="xMidYMid meet">

<g transform="translate(0.000000,512.000000) scale(0.100000,-0.100000)"
fill="#000000" stroke="none">
<path d="M2330 5109 c-501 -45 -984 -240 -1375 -556 -130 -105 -340 -321 -436
-448 -244 -326 -403 -689 -474 -1085 -57 -318 -59 -587 -4 -900 22 -127 68
-310 100 -395 l20 -55 2398 0 2398 0 11 25 c7 14 28 81 47 147 83 284 117 601
97 883 -34 463 -168 866 -416 1245 -189 288 -490 581 -786 765 -471 291 -1033
424 -1580 374z"/>
</g>
</svg>
