<?xml version="1.0" standalone="no"?>
<!DOCTYPE svg PUBLIC "-//W3C//DTD SVG 20010904//EN"
 "http://www.w3.org/TR/2001/REC-SVG-20010904/DTD/svg10.dtd">
<svg version="1.0" xmlns="http://www.w3.org/2000/svg"
 width="512.000000pt" height="512.000000pt" viewBox="0 0 512.000000 512.000000"
 preserveAspectRatio="xMidYMid meet">

<g transform="translate(0.000000,512.000000) scale(0.100000,-0.100000)"
fill="#000000" stroke="none">
<path d="M2335 5109 c-89 -8 -263 -35 -297 -45 -17 -5 -18 -65 -20 -1017 l-3
-1012 -986 -3 -986 -2 -19 -133 c-25 -181 -25 -493 0 -674 l19 -133 986 -2
986 -3 3 -1012 c2 -953 3 -1012 20 -1017 52 -15 217 -37 359 -48 126 -9 200
-9 325 0 143 11 308 33 360 48 17 5 18 64 20 1017 l3 1012 986 3 986 2 19 133
c25 181 25 493 0 674 l-19 133 -986 2 -986 3 -3 1012 c-2 953 -3 1012 -20
1017 -39 12 -204 36 -312 45 -131 12 -303 12 -435 0z"/>
<path d="M1735 4981 c-365 -128 -680 -319 -943 -576 l-114 -110 586 -392 c322
-216 587 -393 591 -393 3 0 5 338 5 750 l0 750 -22 -1 c-13 0 -59 -13 -103
-28z"/>
<path d="M3260 4260 c0 -412 3 -750 6 -750 3 0 269 176 590 392 l585 392 -83
84 c-208 210 -509 414 -788 533 -98 42 -266 99 -291 99 -19 0 -19 -17 -19
-750z"/>
<path d="M433 3982 c-17 -26 -57 -89 -87 -141 l-56 -95 388 -258 388 -258 314
2 314 3 -594 384 c-327 211 -604 390 -615 397 -18 11 -23 8 -52 -34z"/>
<path d="M4041 3631 l-613 -396 313 -3 313 -2 388 258 387 258 -61 104 c-33
57 -73 121 -88 141 l-26 37 -613 -397z"/>
<path d="M156 3438 c-14 -40 -35 -103 -45 -140 l-20 -68 262 0 c150 0 257 4
251 9 -20 19 -404 271 -412 271 -5 0 -21 -33 -36 -72z"/>
<path d="M4711 3369 l-205 -139 261 0 262 0 -20 68 c-32 112 -71 212 -83 211
-6 -1 -103 -64 -215 -140z"/>
<path d="M111 1823 c29 -104 71 -213 81 -213 8 0 392 252 412 271 6 5 -101 9
-251 9 l-262 0 20 -67z"/>
<path d="M678 1632 l-387 -258 52 -89 c29 -50 69 -113 88 -142 l35 -51 590
381 c325 210 602 390 615 399 23 16 8 17 -291 17 l-315 1 -387 -258z"/>
<path d="M3433 1884 c3 -3 279 -183 613 -399 l608 -393 35 51 c19 29 59 92 88
142 l52 89 -387 258 -387 258 -314 0 c-173 0 -312 -3 -308 -6z"/>
<path d="M4715 1750 c116 -77 213 -140 216 -140 8 0 52 121 78 213 l20 67
-262 0 -262 0 210 -140z"/>
<path d="M1262 1218 l-583 -391 73 -75 c185 -187 435 -366 683 -487 145 -70
366 -155 406 -155 19 0 19 15 19 750 0 413 -3 750 -7 750 -5 -1 -270 -177
-591 -392z"/>
<path d="M3260 860 c0 -735 0 -750 19 -750 40 0 261 85 406 155 248 121 498
300 683 488 l74 74 -586 392 c-322 215 -588 391 -591 391 -3 0 -5 -337 -5
-750z"/>
</g>
</svg>
